# xmcd
#
# Track frame offsets:
#	150
#	13647
#	48797
#	91905
#	125787
#	143345
#	171152
#	190602
#	212387
#	234972
#	253077
#	272982
#	285797
#	297040
#	314019
#
# Disc length: 4578 seconds
#
# Revision: 0
# Processed by: cddbd v1.4PL0 Copyright (c) Steve Scherf et al.
# Submitted via: dBpowerAMP V4.0
#
DISCID=ca11e00f
DTITLE=Jan Erik Vold, Kapstad and Venner - Storytellers
DYEAR=1998
DGENRE=Blues
TTITLE0=Henrik Wergeland - Til Foraaret - (1845) - Richard Rodgers - It Might As Well Be Spring
TTITLE1=Arthur Rimbaud - Den Berusede Båten - (1871) - Egil Kapstad - Blues For Rimbaud
TTITLE2=Kristofer Uppdal - Isberget - (1919) - Egil Kapstad - Isberget
TTITLE3=D.H. Lawrence - Dødsbåten - (1930) - Irving Berling - How Deep Is The Ocean
TTITLE4=Rolf Jacobsen - Jern Og Jord - (Byens Metafysikk, 1933, Myrstrå Vipper, 1935) - Richard Rodgers - Manhattan
TTITLE5=Wallace Stevens - Mannen Med Den Blå Gitar - (1937) - James Van Heusen - Imagination
TTITLE6=Claes Gill - Fra En Blind Manns Levnet - (1939) - Eric Dolphy - 245
TTITLE7=Paul Celan - Dødsfuge - (1945) - Egil Kapstad - Dødsfuge
TTITLE8=Gunvor Hofmo - Ropet Om Virkelighet - (Fra En Annen Virkelighet, 1947 and Fra Bretagne 1950) - Bela Bartok - Salme and Egil Kapstad - De Døde Vever
TTITLE9=Gunnar Ekelöf - En Verklighet (Drömd) - (1951) - Lasse Gullin - Merlin
TTITLE10=Ernst Orvil - Seks Dikt 1940-1985 - (Kveld I hagen, 1940 - Kort Møte, 1951 - Hvit Due, 1962 - Relativitet, 1970 - Eksistens, 1982 - Veiløshet, 1985) - Miles Davis - Tune Up
TTITLE11=Robert Creeley - Balladen Om Den Fortvilte Ektemann - (1958) - Sonny Rollins - St. Thomas
TTITLE12=Inger Hagerup - To Landskap - (I Et Landskap, 1958 and Detalj Av Usynlig Novemberlandskap, 1959) - Egil Kapstad - To Landskap
TTITLE13=Wislawa Szymborska - Samtale Med En Stein - (1962) - Møllersteinen, arr. Egil Kapstad
TTITLE14=Jan Erik Vold - Trikken Er Et Øye Som Går På Skinner - (1994) - Billy Strayborn - Take The A-Train
EXTD=Storytellers-\nbetyr: historiefortellere, i dette tilfelle poetiske historiefortellere, altsåt poeter som vet a kunne dra en historie, i dikts form.\nPå platen Storytellers er samlet femten slike -der norske tekster blander seg med utenlandske, i 
EXTD=kronologisk ordning fra Wergeland og Rimbadu i forrige århundre, over kraftpoeter som D.H. Lawrence og Claes Gill, sorgpoeter som Paul Celan og Gunvor Hofmo, gledespoeter som Wallace Stevens fra USA og Wislawa Szymborska fra Polen.\nSistemann ut er
EXTD=oppleseren, som ville sende en hilsen til den dikter som innstifta både poesien og så mye annet her i landet, dengang fro 150 år siden da trikkene ennå ikke hadde begynt å rulle gjennom gatene i vår unge nasjons hovedstad. \nSubmitted by skelettto
EXTD=n
EXTT0=
EXTT1=
EXTT2=
EXTT3=
EXTT4=
EXTT5=
EXTT6=
EXTT7=
EXTT8=
EXTT9=
EXTT10=
EXTT11=
EXTT12=
EXTT13=
EXTT14=
PLAYORDER=
